<?xml version="1.0" encoding="UTF-8"?>
<svg xmlns="http://www.w3.org/2000/svg" xmlns:xlink="http://www.w3.org/1999/xlink" width="16px" height="16px" viewBox="0 0 16 16" version="1.1">
<g id="surface1">
<path style=" stroke:none;fill-rule:evenodd;fill:rgb(99.215686%,87.058824%,69.803923%);fill-opacity:1;" d="M 6.464844 -0.0664062 C 7.445312 -0.0664062 8.421875 -0.0664062 9.398438 -0.0664062 C 11.261719 0.355469 12.816406 1.285156 14.066406 2.734375 C 13.84375 2.699219 13.644531 2.609375 13.464844 2.464844 C 13.023438 2.554688 12.578125 2.644531 12.132812 2.734375 C 12 2.554688 11.867188 2.554688 11.734375 2.734375 C 11.640625 2.617188 11.53125 2.53125 11.398438 2.464844 C 10.933594 2.566406 10.441406 2.566406 9.933594 2.464844 C 9.890625 2.464844 9.84375 2.464844 9.800781 2.464844 C 9.054688 2.121094 8.253906 1.941406 7.398438 1.933594 C 6.996094 1.90625 6.640625 1.992188 6.332031 2.199219 C 6.066406 2.332031 5.800781 2.464844 5.535156 2.601562 C 4.84375 2.601562 4.199219 2.558594 3.601562 2.464844 C 3.320312 2.746094 3.050781 2.703125 2.800781 2.332031 C 2.679688 2.664062 2.476562 2.753906 2.199219 2.601562 C 2.050781 2.75 1.871094 2.839844 1.667969 2.867188 C 2.933594 1.34375 4.535156 0.367188 6.464844 -0.0664062 Z M 6.464844 -0.0664062 "/>
<path style=" stroke:none;fill-rule:evenodd;fill:rgb(99.215686%,85.882354%,67.058825%);fill-opacity:1;" d="M 5.535156 2.601562 C 4.578125 3.53125 3.824219 4.597656 3.265625 5.800781 C 3.144531 5.992188 2.988281 6.167969 2.800781 6.332031 C 2.464844 6.378906 2.132812 6.289062 1.800781 6.066406 C 1.566406 6.394531 1.324219 6.394531 1.066406 6.066406 C 0.6875 6.144531 0.355469 6.277344 0.0664062 6.464844 C 0.273438 5.117188 0.808594 3.917969 1.667969 2.867188 C 1.871094 2.839844 2.050781 2.75 2.199219 2.601562 C 2.476562 2.753906 2.679688 2.664062 2.800781 2.332031 C 3.050781 2.703125 3.320312 2.746094 3.601562 2.464844 C 4.199219 2.558594 4.84375 2.601562 5.535156 2.601562 Z M 5.535156 2.601562 "/>
<path style=" stroke:none;fill-rule:evenodd;fill:rgb(86.666667%,48.235294%,34.509805%);fill-opacity:1;" d="M 9.800781 2.464844 C 10.09375 2.828125 10.429688 3.183594 10.800781 3.535156 C 10.835938 3.957031 11.054688 4.226562 11.464844 4.332031 C 11.671875 4.707031 11.785156 5.109375 11.800781 5.535156 C 10.644531 5.535156 9.488281 5.535156 8.332031 5.535156 C 9.097656 5.441406 9.875 5.351562 10.667969 5.265625 C 10.753906 4.855469 10.710938 4.453125 10.535156 4.066406 C 10.167969 3.925781 9.789062 3.8125 9.398438 3.734375 C 9.632812 3.707031 9.855469 3.640625 10.066406 3.535156 C 9.898438 3.074219 9.609375 2.71875 9.199219 2.464844 C 8.4375 2.230469 7.660156 2.164062 6.867188 2.265625 C 6.246094 2.710938 5.757812 3.265625 5.398438 3.933594 C 5.488281 3.976562 5.578125 4.023438 5.667969 4.066406 C 5.558594 4.183594 5.421875 4.230469 5.265625 4.199219 C 5.136719 4.667969 5.226562 5.113281 5.535156 5.535156 C 6.324219 5.589844 7.125 5.589844 7.933594 5.535156 C 7.933594 5.578125 7.933594 5.621094 7.933594 5.667969 C 6.988281 5.730469 6.054688 5.867188 5.132812 6.066406 C 4.785156 6.101562 4.449219 6.058594 4.132812 5.933594 C 4.035156 5.007812 4.300781 4.207031 4.933594 3.535156 C 5.386719 3.058594 5.851562 2.613281 6.332031 2.199219 C 6.640625 1.992188 6.996094 1.90625 7.398438 1.933594 C 8.253906 1.941406 9.054688 2.121094 9.800781 2.464844 Z M 9.800781 2.464844 "/>
<path style=" stroke:none;fill-rule:evenodd;fill:rgb(99.215686%,85.882354%,67.058825%);fill-opacity:1;" d="M 9.933594 2.464844 C 10.441406 2.566406 10.933594 2.566406 11.398438 2.464844 C 11.53125 2.53125 11.640625 2.617188 11.734375 2.734375 C 11.867188 2.554688 12 2.554688 12.132812 2.734375 C 12.578125 2.644531 13.023438 2.554688 13.464844 2.464844 C 13.644531 2.609375 13.84375 2.699219 14.066406 2.734375 C 15 3.800781 15.578125 5.046875 15.800781 6.464844 C 15.703125 6.410156 15.636719 6.320312 15.601562 6.199219 C 15.554688 6.289062 15.511719 6.378906 15.464844 6.464844 C 15.265625 6.140625 15.085938 6.140625 14.933594 6.464844 C 14.4375 6.007812 13.945312 6.007812 13.464844 6.464844 C 13.410156 6.308594 13.320312 6.175781 13.199219 6.066406 C 13.007812 6.097656 12.804688 6.097656 12.601562 6.066406 C 12.527344 5.59375 12.371094 5.152344 12.132812 4.734375 C 11.460938 3.90625 10.730469 3.152344 9.933594 2.464844 Z M 9.933594 2.464844 "/>
<path style=" stroke:none;fill-rule:evenodd;fill:rgb(88.235295%,54.11765%,36.862746%);fill-opacity:1;" d="M 8.332031 5.535156 C 8.199219 5.535156 8.066406 5.535156 7.933594 5.535156 C 7.125 5.589844 6.324219 5.589844 5.535156 5.535156 C 5.226562 5.113281 5.136719 4.667969 5.265625 4.199219 C 5.421875 4.230469 5.558594 4.183594 5.667969 4.066406 C 5.578125 4.023438 5.488281 3.976562 5.398438 3.933594 C 5.757812 3.265625 6.246094 2.710938 6.867188 2.265625 C 7.660156 2.164062 8.4375 2.230469 9.199219 2.464844 C 9.609375 2.71875 9.898438 3.074219 10.066406 3.535156 C 9.855469 3.640625 9.632812 3.707031 9.398438 3.734375 C 9.789062 3.8125 10.167969 3.925781 10.535156 4.066406 C 10.710938 4.453125 10.753906 4.855469 10.667969 5.265625 C 9.875 5.351562 9.097656 5.441406 8.332031 5.535156 Z M 8.332031 5.535156 "/>
<path style=" stroke:none;fill-rule:evenodd;fill:rgb(78.823531%,41.176471%,30.588236%);fill-opacity:1;" d="M 9.800781 2.464844 C 9.84375 2.464844 9.890625 2.464844 9.933594 2.464844 C 10.730469 3.152344 11.460938 3.90625 12.132812 4.734375 C 12.371094 5.152344 12.527344 5.59375 12.601562 6.066406 C 12.601562 6.15625 12.601562 6.246094 12.601562 6.332031 C 12.382812 6.179688 12.160156 6.023438 11.933594 5.867188 C 10.605469 5.695312 9.273438 5.628906 7.933594 5.667969 C 7.933594 5.621094 7.933594 5.578125 7.933594 5.535156 C 8.066406 5.535156 8.199219 5.535156 8.332031 5.535156 C 9.488281 5.535156 10.644531 5.535156 11.800781 5.535156 C 11.785156 5.109375 11.671875 4.707031 11.464844 4.332031 C 11.054688 4.226562 10.835938 3.957031 10.800781 3.535156 C 10.429688 3.183594 10.09375 2.828125 9.800781 2.464844 Z M 9.800781 2.464844 "/>
<path style=" stroke:none;fill-rule:evenodd;fill:rgb(78.039217%,40.784314%,30.588236%);fill-opacity:1;" d="M 6.332031 2.199219 C 5.851562 2.613281 5.386719 3.058594 4.933594 3.535156 C 4.300781 4.207031 4.035156 5.007812 4.132812 5.933594 C 4.449219 6.058594 4.785156 6.101562 5.132812 6.066406 C 4.554688 6.335938 3.980469 6.625 3.398438 6.933594 C 3.289062 7.066406 3.242188 7.222656 3.265625 7.398438 C 3.113281 6.886719 3.113281 6.351562 3.265625 5.800781 C 3.824219 4.597656 4.578125 3.53125 5.535156 2.601562 C 5.800781 2.464844 6.066406 2.332031 6.332031 2.199219 Z M 6.332031 2.199219 "/>
<path style=" stroke:none;fill-rule:evenodd;fill:rgb(51.764709%,26.666668%,21.176471%);fill-opacity:1;" d="M 7.933594 5.667969 C 9.273438 5.628906 10.605469 5.695312 11.933594 5.867188 C 12.160156 6.023438 12.382812 6.179688 12.601562 6.332031 C 12.609375 6.527344 12.566406 6.707031 12.464844 6.867188 C 12.421875 6.867188 12.378906 6.867188 12.332031 6.867188 C 12.207031 6.160156 11.804688 5.890625 11.132812 6.066406 C 11.21875 6.1875 11.261719 6.320312 11.265625 6.464844 C 10.78125 6.050781 10.246094 5.917969 9.667969 6.066406 C 9.535156 6.066406 9.398438 6.066406 9.265625 6.066406 C 8.867188 5.976562 8.445312 5.933594 8 5.933594 C 7.363281 5.90625 6.765625 5.996094 6.199219 6.199219 C 5.472656 6.308594 4.851562 6.621094 4.332031 7.132812 C 4.207031 7.324219 4.160156 7.542969 4.199219 7.800781 C 4.109375 7.507812 4.023438 7.195312 3.933594 6.867188 C 3.726562 6.960938 3.59375 7.117188 3.535156 7.332031 C 3.65625 7.519531 3.742188 7.722656 3.800781 7.933594 C 3.578125 7.800781 3.398438 7.621094 3.265625 7.398438 C 3.242188 7.222656 3.289062 7.066406 3.398438 6.933594 C 3.980469 6.625 4.554688 6.335938 5.132812 6.066406 C 6.054688 5.867188 6.988281 5.730469 7.933594 5.667969 Z M 7.933594 5.667969 "/>
<path style=" stroke:none;fill-rule:evenodd;fill:rgb(73.333335%,52.549022%,44.705883%);fill-opacity:1;" d="M 9.265625 6.066406 C 9.117188 6.074219 8.984375 6.117188 8.867188 6.199219 C 8 6.078125 7.109375 6.078125 6.199219 6.199219 C 6.765625 5.996094 7.363281 5.90625 8 5.933594 C 8.445312 5.933594 8.867188 5.976562 9.265625 6.066406 Z M 9.265625 6.066406 "/>
<path style=" stroke:none;fill-rule:evenodd;fill:rgb(99.607843%,84.705883%,65.098041%);fill-opacity:1;" d="M 12.601562 6.066406 C 12.804688 6.097656 13.007812 6.097656 13.199219 6.066406 C 13.320312 6.175781 13.410156 6.308594 13.464844 6.464844 C 13.945312 6.007812 14.4375 6.007812 14.933594 6.464844 C 15.085938 6.140625 15.265625 6.140625 15.464844 6.464844 C 15.511719 6.378906 15.554688 6.289062 15.601562 6.199219 C 15.636719 6.320312 15.703125 6.410156 15.800781 6.464844 C 15.84375 6.464844 15.890625 6.464844 15.933594 6.464844 C 15.933594 7.445312 15.933594 8.421875 15.933594 9.398438 C 15.800781 9.753906 15.667969 10.109375 15.535156 10.464844 C 15.570312 10.210938 15.503906 9.988281 15.332031 9.800781 C 15.121094 9.964844 14.945312 9.917969 14.800781 9.667969 C 14.667969 9.84375 14.535156 9.84375 14.398438 9.667969 C 14.222656 9.753906 14.042969 9.84375 13.867188 9.933594 C 13.589844 9.902344 13.320312 9.902344 13.066406 9.933594 C 12.976562 9.578125 12.890625 9.578125 12.800781 9.933594 C 12.730469 9.796875 12.664062 9.664062 12.601562 9.535156 C 13.039062 8.769531 13.152344 7.972656 12.933594 7.132812 C 12.824219 6.957031 12.667969 6.867188 12.464844 6.867188 C 12.566406 6.707031 12.609375 6.527344 12.601562 6.332031 C 12.601562 6.246094 12.601562 6.15625 12.601562 6.066406 Z M 12.601562 6.066406 "/>
<path style=" stroke:none;fill-rule:evenodd;fill:rgb(40.784314%,29.019609%,24.313726%);fill-opacity:1;" d="M 9.265625 6.066406 C 9.398438 6.066406 9.535156 6.066406 9.667969 6.066406 C 9.875 6.097656 10.050781 6.1875 10.199219 6.332031 C 10.199219 6.421875 10.15625 6.464844 10.066406 6.464844 C 9.753906 6.464844 9.445312 6.464844 9.132812 6.464844 C 8.859375 6.527344 8.59375 6.617188 8.332031 6.734375 C 8.253906 6.71875 8.207031 6.671875 8.199219 6.601562 C 8.394531 6.433594 8.617188 6.300781 8.867188 6.199219 C 8.984375 6.117188 9.117188 6.074219 9.265625 6.066406 Z M 9.265625 6.066406 "/>
<path style=" stroke:none;fill-rule:evenodd;fill:rgb(18.431373%,10.588235%,8.627451%);fill-opacity:1;" d="M 12.332031 6.867188 C 12.1875 7.015625 12.097656 7.191406 12.066406 7.398438 C 11.910156 7.429688 11.777344 7.382812 11.667969 7.265625 C 11.582031 6.960938 11.449219 6.695312 11.265625 6.464844 C 11.261719 6.320312 11.21875 6.1875 11.132812 6.066406 C 11.804688 5.890625 12.207031 6.160156 12.332031 6.867188 Z M 12.332031 6.867188 "/>
<path style=" stroke:none;fill-rule:evenodd;fill:rgb(36.078432%,24.705882%,20.392157%);fill-opacity:1;" d="M 5.800781 7.132812 C 6.074219 7.136719 6.34375 7.179688 6.601562 7.265625 C 6.046875 7.332031 5.515625 7.464844 5 7.667969 C 4.957031 7.667969 4.910156 7.667969 4.867188 7.667969 C 4.714844 7.496094 4.757812 7.339844 5 7.199219 C 5.261719 7.132812 5.53125 7.113281 5.800781 7.132812 Z M 5.800781 7.132812 "/>
<path style=" stroke:none;fill-rule:evenodd;fill:rgb(14.117648%,7.450981%,6.27451%);fill-opacity:1;" d="M 4.199219 7.800781 C 4.238281 8.039062 4.195312 8.261719 4.066406 8.464844 C 3.929688 8.417969 3.839844 8.332031 3.800781 8.199219 C 3.800781 8.109375 3.800781 8.023438 3.800781 7.933594 C 3.742188 7.722656 3.65625 7.519531 3.535156 7.332031 C 3.59375 7.117188 3.726562 6.960938 3.933594 6.867188 C 4.023438 7.195312 4.109375 7.507812 4.199219 7.800781 Z M 4.199219 7.800781 "/>
<path style=" stroke:none;fill-rule:evenodd;fill:rgb(88.235295%,68.235296%,60.392159%);fill-opacity:1;" d="M 8.867188 6.199219 C 8.617188 6.300781 8.394531 6.433594 8.199219 6.601562 C 7.765625 6.777344 7.65625 7.042969 7.867188 7.398438 C 7.933594 7.707031 7.957031 8.019531 7.933594 8.332031 C 7.835938 8.148438 7.746094 7.949219 7.667969 7.734375 C 7.539062 7.652344 7.429688 7.671875 7.332031 7.800781 C 7.265625 8.242188 7.246094 8.6875 7.265625 9.132812 C 8.144531 9.03125 8.457031 9.386719 8.199219 10.199219 C 8.21875 10.101562 8.195312 10.011719 8.132812 9.933594 C 7.679688 10.132812 7.257812 10.085938 6.867188 9.800781 C 5.484375 11.113281 4.859375 10.800781 5 8.867188 C 5.089844 8.867188 5.179688 8.867188 5.265625 8.867188 C 5.246094 9.3125 5.265625 9.757812 5.332031 10.199219 C 5.429688 10.273438 5.542969 10.320312 5.667969 10.332031 C 6.386719 10.050781 6.699219 9.519531 6.601562 8.734375 C 6.734375 8.734375 6.867188 8.734375 7 8.734375 C 7.042969 8.28125 7 7.835938 6.867188 7.398438 C 6.777344 7.351562 6.6875 7.308594 6.601562 7.265625 C 6.34375 7.179688 6.074219 7.136719 5.800781 7.132812 C 5.636719 7.046875 5.460938 6.957031 5.265625 6.867188 C 5.546875 6.585938 5.855469 6.363281 6.199219 6.199219 C 7.109375 6.078125 8 6.078125 8.867188 6.199219 Z M 8.867188 6.199219 "/>
<path style=" stroke:none;fill-rule:evenodd;fill:rgb(83.137256%,62.7451%,54.509807%);fill-opacity:1;" d="M 9.132812 6.464844 C 8.839844 6.714844 8.660156 7.027344 8.601562 7.398438 C 8.777344 7.398438 8.957031 7.398438 9.132812 7.398438 C 9.132812 7.445312 9.132812 7.488281 9.132812 7.535156 C 9.042969 7.535156 9 7.578125 9 7.667969 C 8.664062 7.683594 8.578125 7.816406 8.734375 8.066406 C 8.570312 8.175781 8.4375 8.308594 8.332031 8.464844 C 8.160156 8.5 8.027344 8.453125 7.933594 8.332031 C 7.957031 8.019531 7.933594 7.707031 7.867188 7.398438 C 7.65625 7.042969 7.765625 6.777344 8.199219 6.601562 C 8.207031 6.671875 8.253906 6.71875 8.332031 6.734375 C 8.59375 6.617188 8.859375 6.527344 9.132812 6.464844 Z M 9.132812 6.464844 "/>
<path style=" stroke:none;fill-rule:evenodd;fill:rgb(90.196079%,71.764708%,63.529414%);fill-opacity:1;" d="M 9.132812 6.464844 C 9.445312 6.464844 9.753906 6.464844 10.066406 6.464844 C 10.160156 6.585938 10.292969 6.632812 10.464844 6.601562 C 10.546875 6.949219 10.589844 7.304688 10.601562 7.667969 C 10.464844 7.667969 10.332031 7.667969 10.199219 7.667969 C 9.894531 7.4375 9.539062 7.347656 9.132812 7.398438 C 8.957031 7.398438 8.777344 7.398438 8.601562 7.398438 C 8.660156 7.027344 8.839844 6.714844 9.132812 6.464844 Z M 9.132812 6.464844 "/>
<path style=" stroke:none;fill-rule:evenodd;fill:rgb(84.705883%,62.352943%,53.333336%);fill-opacity:1;" d="M 9.800781 10.066406 C 10.101562 10.164062 10.414062 10.207031 10.734375 10.199219 C 10.863281 9.582031 10.886719 8.960938 10.800781 8.332031 C 10.703125 8.089844 10.546875 7.914062 10.332031 7.800781 C 10.246094 7.800781 10.199219 7.753906 10.199219 7.667969 C 10.332031 7.667969 10.464844 7.667969 10.601562 7.667969 C 10.589844 7.304688 10.546875 6.949219 10.464844 6.601562 C 10.292969 6.632812 10.160156 6.585938 10.066406 6.464844 C 10.15625 6.464844 10.199219 6.421875 10.199219 6.332031 C 10.292969 6.210938 10.429688 6.167969 10.601562 6.199219 C 10.859375 6.929688 11.058594 7.683594 11.199219 8.464844 C 11.289062 8.957031 11.289062 9.445312 11.199219 9.933594 C 10.769531 10.582031 10.304688 10.625 9.800781 10.066406 Z M 9.800781 10.066406 "/>
<path style=" stroke:none;fill-rule:evenodd;fill:rgb(65.098041%,66.666669%,65.882355%);fill-opacity:1;" d="M 9 7.667969 C 9.355469 7.753906 9.355469 7.84375 9 7.933594 C 9 7.84375 9 7.753906 9 7.667969 Z M 9 7.667969 "/>
<path style=" stroke:none;fill-rule:evenodd;fill:rgb(4.313726%,3.529412%,2.745098%);fill-opacity:1;" d="M 9 7.667969 C 9 7.578125 9.042969 7.535156 9.132812 7.535156 C 9.578125 7.535156 9.800781 7.753906 9.800781 8.199219 C 9.710938 8.246094 9.621094 8.289062 9.535156 8.332031 C 9.203125 8.386719 9.027344 8.253906 9 7.933594 C 9.355469 7.84375 9.355469 7.753906 9 7.667969 Z M 9 7.667969 "/>
<path style=" stroke:none;fill-rule:evenodd;fill:rgb(40.000001%,34.117648%,28.627452%);fill-opacity:1;" d="M 9.132812 7.535156 C 9.132812 7.488281 9.132812 7.445312 9.132812 7.398438 C 9.539062 7.347656 9.894531 7.4375 10.199219 7.667969 C 9.898438 7.660156 9.855469 7.769531 10.066406 8 C 10.023438 8.136719 9.933594 8.203125 9.800781 8.199219 C 9.800781 7.753906 9.578125 7.535156 9.132812 7.535156 Z M 9.132812 7.535156 "/>
<path style=" stroke:none;fill-rule:evenodd;fill:rgb(34.117648%,27.843139%,22.352941%);fill-opacity:1;" d="M 9 7.667969 C 9 7.753906 9 7.84375 9 7.933594 C 9.027344 8.253906 9.203125 8.386719 9.535156 8.332031 C 9.183594 8.53125 8.917969 8.445312 8.734375 8.066406 C 8.578125 7.816406 8.664062 7.683594 9 7.667969 Z M 9 7.667969 "/>
<path style=" stroke:none;fill-rule:evenodd;fill:rgb(83.137256%,62.352943%,53.333336%);fill-opacity:1;" d="M 12.332031 6.867188 C 12.378906 6.867188 12.421875 6.867188 12.464844 6.867188 C 12.667969 6.867188 12.824219 6.957031 12.933594 7.132812 C 13.152344 7.972656 13.039062 8.769531 12.601562 9.535156 C 12.4375 9.632812 12.261719 9.675781 12.066406 9.667969 C 12.066406 9.578125 12.066406 9.488281 12.066406 9.398438 C 11.992188 8.605469 12.214844 7.917969 12.734375 7.332031 C 12.433594 7.359375 12.191406 7.515625 12 7.800781 C 11.9375 7.65625 11.960938 7.523438 12.066406 7.398438 C 12.097656 7.191406 12.1875 7.015625 12.332031 6.867188 Z M 12.332031 6.867188 "/>
<path style=" stroke:none;fill-rule:evenodd;fill:rgb(71.764708%,50.196081%,41.568628%);fill-opacity:1;" d="M 6.199219 6.199219 C 5.855469 6.363281 5.546875 6.585938 5.265625 6.867188 C 5.460938 6.957031 5.636719 7.046875 5.800781 7.132812 C 5.53125 7.113281 5.261719 7.132812 5 7.199219 C 4.757812 7.339844 4.714844 7.496094 4.867188 7.667969 C 4.445312 8.410156 4.691406 8.722656 5.601562 8.601562 C 5.84375 8.578125 6.089844 8.554688 6.332031 8.535156 C 6.46875 8.394531 6.492188 8.238281 6.398438 8.066406 C 5.988281 7.742188 5.523438 7.609375 5 7.667969 C 5.515625 7.464844 6.046875 7.332031 6.601562 7.265625 C 6.6875 7.308594 6.777344 7.351562 6.867188 7.398438 C 7 7.835938 7.042969 8.28125 7 8.734375 C 6.867188 8.734375 6.734375 8.734375 6.601562 8.734375 C 6.15625 8.777344 5.710938 8.820312 5.265625 8.867188 C 5.179688 8.867188 5.089844 8.867188 5 8.867188 C 4.914062 8.824219 4.824219 8.78125 4.734375 8.734375 C 4.601562 9.214844 4.558594 9.703125 4.601562 10.199219 C 4.511719 10.289062 4.421875 10.378906 4.332031 10.464844 C 4.054688 10.007812 3.808594 9.519531 3.601562 9 C 3.496094 8.707031 3.515625 8.4375 3.667969 8.199219 C 3.546875 8.699219 3.722656 8.964844 4.199219 9 C 4.171875 9.332031 4.238281 9.644531 4.398438 9.933594 C 4.488281 8.996094 4.46875 8.0625 4.332031 7.132812 C 4.851562 6.621094 5.472656 6.308594 6.199219 6.199219 Z M 6.199219 6.199219 "/>
<path style=" stroke:none;fill-rule:evenodd;fill:rgb(84.313726%,62.352943%,53.333336%);fill-opacity:1;" d="M 4.867188 7.667969 C 4.910156 7.667969 4.957031 7.667969 5 7.667969 C 5.523438 7.609375 5.988281 7.742188 6.398438 8.066406 C 6.492188 8.238281 6.46875 8.394531 6.332031 8.535156 C 6.089844 8.554688 5.84375 8.578125 5.601562 8.601562 C 4.691406 8.722656 4.445312 8.410156 4.867188 7.667969 Z M 4.867188 7.667969 "/>
<path style=" stroke:none;fill-rule:evenodd;fill:rgb(91.37255%,79.215688%,72.549021%);fill-opacity:1;" d="M 10.199219 7.667969 C 10.199219 7.753906 10.246094 7.800781 10.332031 7.800781 C 10.28125 8.257812 10.371094 8.683594 10.601562 9.066406 C 10.503906 9.300781 10.457031 9.546875 10.464844 9.800781 C 9.800781 9.734375 9.132812 9.644531 8.464844 9.535156 C 8.347656 9.1875 8.304688 8.832031 8.332031 8.464844 C 8.4375 8.308594 8.570312 8.175781 8.734375 8.066406 C 8.917969 8.445312 9.183594 8.53125 9.535156 8.332031 C 9.621094 8.289062 9.710938 8.246094 9.800781 8.199219 C 9.933594 8.203125 10.023438 8.136719 10.066406 8 C 9.855469 7.769531 9.898438 7.660156 10.199219 7.667969 Z M 10.199219 7.667969 "/>
<path style=" stroke:none;fill-rule:evenodd;fill:rgb(61.176473%,38.039216%,30.19608%);fill-opacity:1;" d="M 4.332031 7.132812 C 4.46875 8.0625 4.488281 8.996094 4.398438 9.933594 C 4.238281 9.644531 4.171875 9.332031 4.199219 9 C 3.722656 8.964844 3.546875 8.699219 3.667969 8.199219 C 3.710938 8.199219 3.753906 8.199219 3.800781 8.199219 C 3.839844 8.332031 3.929688 8.417969 4.066406 8.464844 C 4.195312 8.261719 4.238281 8.039062 4.199219 7.800781 C 4.160156 7.542969 4.207031 7.324219 4.332031 7.132812 Z M 4.332031 7.132812 "/>
<path style=" stroke:none;fill-rule:evenodd;fill:rgb(91.37255%,76.862746%,69.803923%);fill-opacity:1;" d="M 6.601562 8.734375 C 6.699219 9.519531 6.386719 10.050781 5.667969 10.332031 C 5.542969 10.320312 5.429688 10.273438 5.332031 10.199219 C 5.265625 9.757812 5.246094 9.3125 5.265625 8.867188 C 5.710938 8.820312 6.15625 8.777344 6.601562 8.734375 Z M 6.601562 8.734375 "/>
<path style=" stroke:none;fill-rule:evenodd;fill:rgb(99.215686%,83.92157%,63.137257%);fill-opacity:1;" d="M 3.265625 5.800781 C 3.113281 6.351562 3.113281 6.886719 3.265625 7.398438 C 3.398438 7.621094 3.578125 7.800781 3.800781 7.933594 C 3.800781 8.023438 3.800781 8.109375 3.800781 8.199219 C 3.753906 8.199219 3.710938 8.199219 3.667969 8.199219 C 3.515625 8.4375 3.496094 8.707031 3.601562 9 C 3.808594 9.519531 4.054688 10.007812 4.332031 10.464844 C 4.539062 10.925781 4.785156 11.367188 5.066406 11.800781 C 5.742188 12.410156 6.429688 12.988281 7.132812 13.535156 C 7.015625 13.515625 6.925781 13.558594 6.867188 13.667969 C 7 13.785156 7 13.875 6.867188 13.933594 C 6.691406 13.554688 6.421875 13.46875 6.066406 13.667969 C 6.199219 13.785156 6.199219 13.875 6.066406 13.933594 C 5.957031 13.8125 5.824219 13.722656 5.667969 13.667969 C 5.484375 13.757812 5.328125 13.757812 5.199219 13.667969 C 5.109375 13.753906 5.023438 13.84375 4.933594 13.933594 C 4.699219 13.78125 4.457031 13.648438 4.199219 13.535156 C 4.109375 13.601562 4.039062 13.691406 4 13.800781 C 3.90625 13.671875 3.792969 13.652344 3.667969 13.734375 C 3.824219 13.820312 3.824219 13.886719 3.667969 13.933594 C 3.449219 13.871094 3.292969 13.738281 3.199219 13.535156 C 3.15625 13.621094 3.109375 13.710938 3.066406 13.800781 C 2.640625 13.445312 2.53125 13.535156 2.734375 14.066406 C 1.285156 12.816406 0.355469 11.261719 -0.0664062 9.398438 C -0.0664062 8.421875 -0.0664062 7.445312 -0.0664062 6.464844 C -0.0234375 6.464844 0.0234375 6.464844 0.0664062 6.464844 C 0.355469 6.277344 0.6875 6.144531 1.066406 6.066406 C 1.324219 6.394531 1.566406 6.394531 1.800781 6.066406 C 2.132812 6.289062 2.464844 6.378906 2.800781 6.332031 C 2.988281 6.167969 3.144531 5.992188 3.265625 5.800781 Z M 3.265625 5.800781 "/>
<path style=" stroke:none;fill-rule:evenodd;fill:rgb(90.588236%,72.941178%,64.705884%);fill-opacity:1;" d="M 7.933594 8.332031 C 8.027344 8.453125 8.160156 8.5 8.332031 8.464844 C 8.304688 8.832031 8.347656 9.1875 8.464844 9.535156 C 9.132812 9.644531 9.800781 9.734375 10.464844 9.800781 C 10.457031 9.546875 10.503906 9.300781 10.601562 9.066406 C 10.371094 8.683594 10.28125 8.257812 10.332031 7.800781 C 10.546875 7.914062 10.703125 8.089844 10.800781 8.332031 C 10.886719 8.960938 10.863281 9.582031 10.734375 10.199219 C 10.414062 10.207031 10.101562 10.164062 9.800781 10.066406 C 9.511719 10.050781 9.46875 10.140625 9.667969 10.332031 C 9.566406 10.425781 9.480469 10.511719 9.398438 10.601562 C 9.355469 10.601562 9.3125 10.601562 9.265625 10.601562 C 8.855469 10.582031 8.457031 10.625 8.066406 10.734375 C 7.839844 10.753906 7.617188 10.734375 7.398438 10.667969 C 7.566406 10.636719 7.699219 10.570312 7.800781 10.464844 C 7.933594 10.378906 8.066406 10.289062 8.199219 10.199219 C 8.457031 9.386719 8.144531 9.03125 7.265625 9.132812 C 7.246094 8.6875 7.265625 8.242188 7.332031 7.800781 C 7.429688 7.671875 7.539062 7.652344 7.667969 7.734375 C 7.746094 7.949219 7.835938 8.148438 7.933594 8.332031 Z M 7.933594 8.332031 "/>
<path style=" stroke:none;fill-rule:evenodd;fill:rgb(65.098041%,42.352942%,34.509805%);fill-opacity:1;" d="M 6.867188 9.800781 C 7.257812 10.085938 7.679688 10.132812 8.132812 9.933594 C 8.195312 10.011719 8.21875 10.101562 8.199219 10.199219 C 8.066406 10.289062 7.933594 10.378906 7.800781 10.464844 C 7.21875 10.59375 6.910156 10.375 6.867188 9.800781 Z M 6.867188 9.800781 "/>
<path style=" stroke:none;fill-rule:evenodd;fill:rgb(75.686276%,52.549022%,43.921569%);fill-opacity:1;" d="M 9.667969 6.066406 C 10.246094 5.917969 10.78125 6.050781 11.265625 6.464844 C 11.449219 6.695312 11.582031 6.960938 11.667969 7.265625 C 11.777344 7.382812 11.910156 7.429688 12.066406 7.398438 C 11.960938 7.523438 11.9375 7.65625 12 7.800781 C 12.191406 7.515625 12.433594 7.359375 12.734375 7.332031 C 12.214844 7.917969 11.992188 8.605469 12.066406 9.398438 C 11.273438 10.183594 10.671875 11.117188 10.265625 12.199219 C 9.996094 12.492188 9.707031 12.761719 9.398438 13 C 9.613281 12.632812 9.855469 12.273438 10.132812 11.933594 C 10.242188 11.4375 10.132812 10.992188 9.800781 10.601562 C 9.707031 10.648438 9.621094 10.691406 9.535156 10.734375 C 9.535156 10.644531 9.488281 10.601562 9.398438 10.601562 C 9.480469 10.511719 9.566406 10.425781 9.667969 10.332031 C 9.46875 10.140625 9.511719 10.050781 9.800781 10.066406 C 10.304688 10.625 10.769531 10.582031 11.199219 9.933594 C 11.289062 9.445312 11.289062 8.957031 11.199219 8.464844 C 11.058594 7.683594 10.859375 6.929688 10.601562 6.199219 C 10.429688 6.167969 10.292969 6.210938 10.199219 6.332031 C 10.050781 6.1875 9.875 6.097656 9.667969 6.066406 Z M 9.667969 6.066406 "/>
<path style=" stroke:none;fill-rule:evenodd;fill:rgb(81.568629%,59.215689%,50.196081%);fill-opacity:1;" d="M 5 8.867188 C 4.859375 10.800781 5.484375 11.113281 6.867188 9.800781 C 6.910156 10.375 7.21875 10.59375 7.800781 10.464844 C 7.699219 10.570312 7.566406 10.636719 7.398438 10.667969 C 7.617188 10.734375 7.839844 10.753906 8.066406 10.734375 C 7.554688 10.820312 7.019531 10.910156 6.464844 11 C 6.484375 11.082031 6.527344 11.125 6.601562 11.132812 C 6.644531 11.265625 6.734375 11.355469 6.867188 11.398438 C 6.855469 11.53125 6.898438 11.644531 7 11.734375 C 6.820312 11.894531 6.683594 12.09375 6.601562 12.332031 C 6.128906 12.011719 5.863281 11.570312 5.800781 11 C 5.570312 10.984375 5.347656 10.9375 5.132812 10.867188 C 4.855469 10.722656 4.675781 10.5 4.601562 10.199219 C 4.558594 9.703125 4.601562 9.214844 4.734375 8.734375 C 4.824219 8.78125 4.914062 8.824219 5 8.867188 Z M 5 8.867188 "/>
<path style=" stroke:none;fill-rule:evenodd;fill:rgb(62.352943%,40.392157%,31.764707%);fill-opacity:1;" d="M 12.066406 9.398438 C 12.066406 9.488281 12.066406 9.578125 12.066406 9.667969 C 11.511719 11.3125 10.488281 12.578125 9 13.464844 C 8.378906 13.671875 7.757812 13.695312 7.132812 13.535156 C 6.429688 12.988281 5.742188 12.410156 5.066406 11.800781 C 4.785156 11.367188 4.539062 10.925781 4.332031 10.464844 C 4.421875 10.378906 4.511719 10.289062 4.601562 10.199219 C 4.675781 10.5 4.855469 10.722656 5.132812 10.867188 C 5.113281 11.050781 5.132812 11.226562 5.199219 11.398438 C 5.925781 11.992188 6.613281 12.636719 7.265625 13.332031 C 7.800781 13.421875 8.332031 13.421875 8.867188 13.332031 C 9.074219 13.253906 9.253906 13.140625 9.398438 13 C 9.707031 12.761719 9.996094 12.492188 10.265625 12.199219 C 10.671875 11.117188 11.273438 10.183594 12.066406 9.398438 Z M 12.066406 9.398438 "/>
<path style=" stroke:none;fill-rule:evenodd;fill:rgb(85.882354%,52.549022%,49.411765%);fill-opacity:1;" d="M 8.867188 11.535156 C 8.636719 11.933594 8.503906 12.378906 8.464844 12.867188 C 7.394531 13.128906 6.949219 12.683594 7.132812 11.535156 C 7.507812 11.402344 7.90625 11.316406 8.332031 11.265625 C 8.546875 11.308594 8.726562 11.394531 8.867188 11.535156 Z M 8.867188 11.535156 "/>
<path style=" stroke:none;fill-rule:evenodd;fill:rgb(32.941177%,19.607843%,17.647059%);fill-opacity:1;" d="M 6.734375 11 C 7.285156 11.132812 7.863281 11.175781 8.464844 11.132812 C 8.691406 11.136719 8.871094 11.226562 9 11.398438 C 9 11.488281 8.957031 11.535156 8.867188 11.535156 C 8.726562 11.394531 8.546875 11.308594 8.332031 11.265625 C 7.90625 11.316406 7.507812 11.402344 7.132812 11.535156 C 7.042969 11.488281 6.957031 11.445312 6.867188 11.398438 C 6.734375 11.355469 6.644531 11.265625 6.601562 11.132812 C 6.601562 11.042969 6.644531 11 6.734375 11 Z M 6.734375 11 "/>
<path style=" stroke:none;fill-rule:evenodd;fill:rgb(11.372549%,7.843138%,7.058824%);fill-opacity:1;" d="M 9.265625 10.601562 C 9.3125 10.601562 9.355469 10.601562 9.398438 10.601562 C 9.488281 10.601562 9.535156 10.644531 9.535156 10.734375 C 9.386719 10.984375 9.207031 11.207031 9 11.398438 C 8.871094 11.226562 8.691406 11.136719 8.464844 11.132812 C 8.703125 11.023438 8.921875 10.890625 9.132812 10.734375 C 9.222656 10.734375 9.265625 10.6875 9.265625 10.601562 Z M 9.265625 10.601562 "/>
<path style=" stroke:none;fill-rule:evenodd;fill:rgb(54.509807%,45.09804%,41.568628%);fill-opacity:1;" d="M 9.132812 10.734375 C 8.921875 10.890625 8.703125 11.023438 8.464844 11.132812 C 7.863281 11.175781 7.285156 11.132812 6.734375 11 C 7.546875 11.03125 8.347656 10.941406 9.132812 10.734375 Z M 9.132812 10.734375 "/>
<path style=" stroke:none;fill-rule:evenodd;fill:rgb(68.235296%,42.352942%,36.078432%);fill-opacity:1;" d="M 9.265625 10.601562 C 9.265625 10.6875 9.222656 10.734375 9.132812 10.734375 C 8.347656 10.941406 7.546875 11.03125 6.734375 11 C 6.644531 11 6.601562 11.042969 6.601562 11.132812 C 6.527344 11.125 6.484375 11.082031 6.464844 11 C 7.019531 10.910156 7.554688 10.820312 8.066406 10.734375 C 8.457031 10.625 8.855469 10.582031 9.265625 10.601562 Z M 9.265625 10.601562 "/>
<path style=" stroke:none;fill-rule:evenodd;fill:rgb(84.313726%,61.960787%,53.333336%);fill-opacity:1;" d="M 9.398438 13 C 9.058594 13.039062 8.746094 12.996094 8.464844 12.867188 C 8.503906 12.378906 8.636719 11.933594 8.867188 11.535156 C 8.957031 11.535156 9 11.488281 9 11.398438 C 9.207031 11.207031 9.386719 10.984375 9.535156 10.734375 C 9.621094 10.691406 9.707031 10.648438 9.800781 10.601562 C 10.132812 10.992188 10.242188 11.4375 10.132812 11.933594 C 9.855469 12.273438 9.613281 12.632812 9.398438 13 Z M 9.398438 13 "/>
<path style=" stroke:none;fill-rule:evenodd;fill:rgb(76.078433%,52.549022%,44.313726%);fill-opacity:1;" d="M 5.132812 10.867188 C 5.347656 10.9375 5.570312 10.984375 5.800781 11 C 5.863281 11.570312 6.128906 12.011719 6.601562 12.332031 C 6.683594 12.09375 6.820312 11.894531 7 11.734375 C 6.898438 11.644531 6.855469 11.53125 6.867188 11.398438 C 6.957031 11.445312 7.042969 11.488281 7.132812 11.535156 C 6.949219 12.683594 7.394531 13.128906 8.464844 12.867188 C 8.746094 12.996094 9.058594 13.039062 9.398438 13 C 9.253906 13.140625 9.074219 13.253906 8.867188 13.332031 C 8.332031 13.421875 7.800781 13.421875 7.265625 13.332031 C 6.613281 12.636719 5.925781 11.992188 5.199219 11.398438 C 5.132812 11.226562 5.113281 11.050781 5.132812 10.867188 Z M 5.132812 10.867188 "/>
<path style=" stroke:none;fill-rule:evenodd;fill:rgb(99.215686%,83.137256%,61.960787%);fill-opacity:1;" d="M 12.601562 9.535156 C 12.664062 9.664062 12.730469 9.796875 12.800781 9.933594 C 12.890625 9.578125 12.976562 9.578125 13.066406 9.933594 C 13.320312 9.902344 13.589844 9.902344 13.867188 9.933594 C 14.042969 9.84375 14.222656 9.753906 14.398438 9.667969 C 14.535156 9.84375 14.667969 9.84375 14.800781 9.667969 C 14.945312 9.917969 15.121094 9.964844 15.332031 9.800781 C 15.503906 9.988281 15.570312 10.210938 15.535156 10.464844 C 14.492188 13.417969 12.449219 15.242188 9.398438 15.933594 C 8.421875 15.933594 7.445312 15.933594 6.464844 15.933594 C 5.082031 15.597656 3.835938 14.972656 2.734375 14.066406 C 2.53125 13.535156 2.640625 13.445312 3.066406 13.800781 C 3.109375 13.710938 3.15625 13.621094 3.199219 13.535156 C 3.292969 13.738281 3.449219 13.871094 3.667969 13.933594 C 3.824219 13.886719 3.824219 13.820312 3.667969 13.734375 C 3.792969 13.652344 3.90625 13.671875 4 13.800781 C 4.039062 13.691406 4.109375 13.601562 4.199219 13.535156 C 4.457031 13.648438 4.699219 13.78125 4.933594 13.933594 C 5.023438 13.84375 5.109375 13.753906 5.199219 13.667969 C 5.328125 13.757812 5.484375 13.757812 5.667969 13.667969 C 5.824219 13.722656 5.957031 13.8125 6.066406 13.933594 C 6.199219 13.875 6.199219 13.785156 6.066406 13.667969 C 6.421875 13.46875 6.691406 13.554688 6.867188 13.933594 C 7 13.875 7 13.785156 6.867188 13.667969 C 6.925781 13.558594 7.015625 13.515625 7.132812 13.535156 C 7.757812 13.695312 8.378906 13.671875 9 13.464844 C 10.488281 12.578125 11.511719 11.3125 12.066406 9.667969 C 12.261719 9.675781 12.4375 9.632812 12.601562 9.535156 Z M 12.601562 9.535156 "/>
</g>
</svg>
